# xmcd
#
# Track frame offsets: 
#        150
#        13734
#        34365
#        54321
#        71676
#        86386
#        106800
#        118921
#        134551
#        151895
#        163094
#        168779
#        187798
#        206244
#
# Disc length: 2948 seconds
#
# Revision: 1
# Processed by: cddbd v1.5.2PL0 Copyright (c) Steve Scherf et al.
# Submitted via: ExactAudioCopyFreeDBPlugin 1.0
#
DISCID=ba0b820e
DTITLE=SZA - Ctrl
DYEAR=2017
DGENRE=R&B
TTITLE0=Supermodel
TTITLE1=Love Galore (feat. Travis Scott)
TTITLE2=Doves In The Wind (feat. Kendrick Lamar)
TTITLE3=Drew Barrymore
TTITLE4=Prom
TTITLE5=The Weekend
TTITLE6=Go Gina
TTITLE7=Garden (Say It Like Dat)
TTITLE8=Broken Clocks
TTITLE9=Anything
TTITLE10=Wavy (Interlude) (feat. James Fauntleroy)
TTITLE11=Normal Girl
TTITLE12=Pretty Little Birds (feat. Isaiah Rashad)
TTITLE13=20 Something
EXTD=
EXTT0=
EXTT1=
EXTT2=
EXTT3=
EXTT4=
EXTT5=
EXTT6=
EXTT7=
EXTT8=
EXTT9=
EXTT10=
EXTT11=
EXTT12=
EXTT13=
PLAYORDER=
